# xmcd
#
# Track frame offsets: 
#        150
#        20332
#        49350
#        67102
#        96190
#        119620
#        137280
#        154767
#        173492
#        203767
#        213077
#        236002
#        253757
#        273002
#        298425
#
# Disc length: 4218 seconds
#
# Revision: 0
# Processed by: cddbd v1.5.1PL0 Copyright (c) Steve Scherf et al.
# Submitted via: ExactAudioCopy v0.95a5
#
DISCID=db10780f
DTITLE=Various Artist - Heart and Soul CD2
DYEAR=2004
DGENRE=R&B
TTITLE0=Joss Stone - I've Fallen In Love With You
TTITLE1=All Saints - Never Ever
TTITLE2=Jill Scott - Gettin' In The Way
TTITLE3=Erykah Badu - Next Lifetime
TTITLE4=Babyface featuring Stevie Wonder - How Come, How Long
TTITLE5=Des'Ree - Feel So High
TTITLE6=Delta Goodrem - Born To Try
TTITLE7=Diana King - Find My Way Back
TTITLE8=Luther Vandross - Power Of Love
TTITLE9=Bill Withers - Ain't No Sunshine
TTITLE10=The Jacksons - 2300 Jackson Street
TTITLE11=Earth, Wind and Fire - After The Love Has Gone
TTITLE12=Champaign - How 'bout Us
TTITLE13=The Isley Brothers - Between The Sheets
TTITLE14=Marvin Gaye - Sexual Healing
EXTD=
EXTT0=
EXTT1=
EXTT2=
EXTT3=
EXTT4=
EXTT5=
EXTT6=
EXTT7=
EXTT8=
EXTT9=
EXTT10=
EXTT11=
EXTT12=
EXTT13=
EXTT14=
PLAYORDER=
